# xmcd
#
# Track frame offsets:
#	150
#	1830
#	23142
#	45060
#	64460
#	83372
#	102708
#	115453
#	138193
#	156312
#	182768
#
# Disc length: 2753 seconds
#
# Revision: 0
# Processed by: cddbd v1.5.2PL0 Copyright (c) Steve Scherf et al.
# Submitted via: audiograbber 1.83.01
#
DISCID=840abf0b
DTITLE=Arnstein Hammershaug - Langsomme dager
DYEAR=2009
DGENRE=Country
TTITLE0=Overtyre
TTITLE1=(Jeg tror) Gud er her i kveld
TTITLE2=Flammen som brenner
TTITLE3=Et par ting om livet
TTITLE4=Jeg vandrer med deg
TTITLE5=Frihetens pris
TTITLE6=Gå for alltid langs min sti
TTITLE7=Jeg vet hvordan du har det
TTITLE8=Lyden av natta
TTITLE9=Og sola går sin gang
TTITLE10=Langsomme dager
EXTD=
EXTT0=
EXTT1=
EXTT2=
EXTT3=
EXTT4=
EXTT5=
EXTT6=
EXTT7=
EXTT8=
EXTT9=
EXTT10=
PLAYORDER=
